####
#
#	OBJ File Generated by LightWave3D
#	LightWave3D OBJ Export v2.3
#
####
o melon_cut.obj
mtllib melon_cut.mtl
g default
v -0.125 0.125 -0
v -0.120741 0.0926476 -0
v -0.120741 0.09375 -0.00837341
v -0.120741 0.09375 0.00837341
v -0.108253 0.0625 -0
v -0.108253 0.0646296 -0.0161762
v -0.108253 0.0646296 0.0161762
v -0.0883883 0.0366117 -0
v -0.0883883 0.0396234 -0.0228766
v -0.0883883 0.0396234 0.0228766
v -0.0625 0.0167468 -0
v -0.0625 0.0204355 -0.028018
v -0.0625 0.0204355 0.028018
v -0.0323524 0.00425927 -0
v -0.0323524 0.00837342 -0.03125
v -0.0323524 0.00837342 0.03125
v 7.80626e-018 0 -0
v 7.80626e-018 0.00425927 -0.0323524
v 7.80626e-018 0.00425927 0.0323524
v 0.0323524 0.00425927 -0
v 0.0323524 0.00837341 -0.03125
v 0.0323524 0.00837341 0.03125
v 0.0625 0.0167468 -0
v 0.0625 0.0204355 -0.028018
v 0.0625 0.0204355 0.028018
v 0.0883883 0.0366117 -0
v 0.0883883 0.0396234 -0.0228766
v 0.0883883 0.0396234 0.0228766
v 0.108253 0.0625 -0
v 0.108253 0.0646296 -0.0161762
v 0.108253 0.0646296 0.0161762
v 0.120741 0.0926476 -0
v 0.120741 0.09375 -0.00837341
v 0.120741 0.09375 0.00837341
v 0.125 0.125 -0
v -0.0994289 0.125 -0
v -0.0994289 0.125 -2.42467e-010
v 0.0994289 0.125 -0
v 0.0994289 0.125 -1.87403e-010
v -0.0994289 0.125 -0
v -0.0883883 0.111102 -0.00372398
v -0.0883883 0.111102 0.00372398
v -0.0649772 0.09375 -0.00837341
v -0.0625 0.091914 -0.00886537
v -0.0649772 0.09375 0.00837341
v -0.0625 0.091914 0.00886538
v -0.0323524 0.0798519 -0.0120974
v -0.0323524 0.0798519 0.0120974
v 3.57628e-009 0.0757378 -0.0131998
v 3.57628e-009 0.0757378 0.0131998
v 0.0323524 0.0798519 -0.0120974
v 0.0323524 0.0798519 0.0120974
v 0.0625 0.091914 -0.00886537
v 0.0625 0.091914 0.00886537
v 0.0883883 0.111102 -0.00372398
v 0.0649772 0.09375 -0.00837341
v 0.0883883 0.111102 0.00372398
v 0.0649772 0.09375 0.00837341
v 0.0994289 0.125 -0
v -0.0883883 0.110612 -0
v -0.0625 0.0907468 -0
v -0.0323524 0.0782593 -0
v 3.57628e-009 0.074 -0
v 0.0323524 0.0782593 -0
v 0.0625 0.0907468 -0
v 0.0883883 0.110612 -0
v -0.125 0.125 -0
v -0.120741 0.09375 -0.00837341
v -0.108253 0.0646296 -0.0161762
v -0.0883883 0.0396234 -0.0228766
v -0.0625 0.0204355 -0.028018
v -0.0323524 0.00837342 -0.03125
v 7.80626e-018 0.00425927 -0.0323524
v 0.0323524 0.00837341 -0.03125
v 0.0625 0.0204355 -0.028018
v 0.0883883 0.0396234 -0.0228766
v 0.108253 0.0646296 -0.0161762
v 0.120741 0.09375 -0.00837341
v 0.125 0.125 -0
v -0.0994289 0.125 -2.42467e-010
v -0.0883883 0.111102 -0.00372398
v -0.0649772 0.09375 -0.00837341
v 0.0649772 0.09375 -0.00837341
v 0.0883883 0.111102 -0.00372398
v 0.0994289 0.125 -1.87403e-010
v -0.0625 0.091914 -0.00886538
v -0.0323524 0.0798519 -0.0120974
v 3.57628e-009 0.0757378 -0.0131998
v 0.0323524 0.0798519 -0.0120974
v 0.0625 0.091914 -0.00886537
v -0.125 0.125 -0
v -0.120741 0.09375 0.00837341
v -0.108253 0.0646296 0.0161762
v -0.0883883 0.0396234 0.0228766
v -0.0625 0.0204355 0.028018
v -0.0323524 0.00837342 0.03125
v 7.80626e-018 0.00425927 0.0323524
v 0.0323524 0.00837341 0.03125
v 0.0625 0.0204355 0.028018
v 0.0883883 0.0396234 0.0228766
v 0.108253 0.0646296 0.0161762
v 0.120741 0.09375 0.00837341
v 0.125 0.125 -0
v -0.0994289 0.125 -0
v 0.0994289 0.125 -0
v -0.0883883 0.111102 0.00372398
v -0.0649772 0.09375 0.00837341
v 0.0649772 0.09375 0.00837341
v 0.0883883 0.111102 0.00372398
v -0.0625 0.091914 0.00886538
v -0.0323524 0.0798519 0.0120974
v 3.57628e-009 0.0757378 0.0131998
v 0.0323524 0.0798519 0.0120974
v 0.0625 0.091914 0.00886537
vt 0.0109678 0.492008
vt 0.049562 0.193424
vt 0.05591 0.155533
vt 0.057258 0.207576
vt 0.0745214 0.120224
vt 0.0876229 0.514897
vt 0.0876731 0.193424
vt 0.0889308 0.49579
vt 0.0902387 0.476684
vt 0.0918 0.9816
vt 0.104128 0.0899036
vt 0.104128 0.176572
vt 0.10577 0.900603
vt 0.10577 0.9416
vt 0.10577 0.982597
vt 0.13902 0.155533
vt 0.142712 0.0666379
vt 0.142712 0.153307
vt 0.14673 0.8224
vt 0.14673 0.9016
vt 0.14673 0.9808
vt 0.187644 0.0520125
vt 0.187644 0.138681
vt 0.198296 0.546773
vt 0.204178 0.46085
vt 0.210007 0.550146
vt 0.211886 0.759594
vt 0.211886 0.8716
vt 0.211886 0.983606
vt 0.213121 0.50466
vt 0.216234 0.459174
vt 0.235862 0.047024
vt 0.235862 0.133693
vt 0.28408 0.0520125
vt 0.28408 0.138681
vt 0.2968 0.709422
vt 0.2968 0.8466
vt 0.2968 0.983778
vt 0.298494 0.577057
vt 0.302743 0.514989
vt 0.306991 0.452921
vt 0.329012 0.0666379
vt 0.329012 0.153307
vt 0.332704 0.155533
vt 0.367596 0.176572
vt 0.367596 0.0899036
vt 0.384051 0.193424
vt 0.395684 0.673597
vt 0.395684 0.8266
vt 0.395684 0.979603
vt 0.397203 0.120224
vt 0.415814 0.155533
vt 0.422162 0.193424
vt 0.443831 0.591734
vt 0.447029 0.526041
vt 0.450228 0.460349
vt 0.5018 0.6682
vt 0.5018 0.8266
vt 0.5018 0.985
vt 0.522745 0.189881
vt 0.530335 0.149842
vt 0.551185 0.597
vt 0.55371 0.112531
vt 0.554116 0.536793
vt 0.557048 0.476587
vt 0.568313 0.189881
vt 0.587987 0.172074
vt 0.588047 0.0804916
vt 0.607828 0.684725
vt 0.607828 0.834668
vt 0.607828 0.984611
vt 0.629706 0.149842
vt 0.63412 0.0559069
vt 0.63412 0.147489
vt 0.661757 0.590934
vt 0.663906 0.546812
vt 0.666054 0.502691
vt 0.67018 0.590095
vt 0.679839 0.505082
vt 0.684908 0.132035
vt 0.687843 0.0404523
vt 0.706818 0.709933
vt 0.706818 0.844368
vt 0.706818 0.978803
vt 0.74083 0.126763
vt 0.745495 0.035181
vt 0.791714 0.749594
vt 0.791714 0.8616
vt 0.791714 0.973606
vt 0.796752 0.132035
vt 0.803147 0.0404523
vt 0.85687 0.0559069
vt 0.85687 0.147489
vt 0.85687 0.8124
vt 0.85687 0.8916
vt 0.85687 0.9708
vt 0.857292 0.574428
vt 0.859439 0.555524
vt 0.861284 0.149842
vt 0.861587 0.53662
vt 0.893613 0.0804916
vt 0.89783 0.900603
vt 0.89783 0.9416
vt 0.89783 0.982597
vt 0.903003 0.172074
vt 0.9118 0.9866
vt 0.922677 0.189881
vt 0.92795 0.112531
vt 0.946415 0.559267
vt 0.960655 0.149842
vt 0.968245 0.189881
vn -0.965385 -0.258598 -0.034045
vn -0.965945 -0.258748 -0
vn -0.991445 -0.130526 -0
vn -0.965945 -0.258748 -0
vn -0.965385 -0.258598 0.034045
vn -0.991445 -0.130526 -0
vn -0.965385 -0.258598 -0.034045
vn -0.86422 -0.498811 -0.0656697
vn -0.866089 -0.49989 -5.64876e-009
vn -0.965945 -0.258748 -0
vn -0.965945 -0.258748 -0
vn -0.866089 -0.49989 -5.64876e-009
vn -0.86422 -0.498811 0.0656697
vn -0.965385 -0.258598 0.034045
vn -0.86422 -0.498811 -0.0656697
vn -0.704167 -0.70396 -0.0926781
vn -0.70721 -0.707003 -3.77367e-009
vn -0.866089 -0.49989 -5.64876e-009
vn -0.866089 -0.49989 -5.64876e-009
vn -0.70721 -0.707003 -3.77367e-009
vn -0.704167 -0.70396 0.0926781
vn -0.86422 -0.498811 0.0656697
vn -0.704167 -0.70396 -0.0926781
vn -0.496891 -0.860389 -0.113272
vn -0.500109 -0.865962 1.89075e-009
vn -0.70721 -0.707003 -3.77367e-009
vn -0.70721 -0.707003 -3.77367e-009
vn -0.500109 -0.865962 1.89075e-009
vn -0.496891 -0.860389 0.113272
vn -0.704167 -0.70396 0.0926781
vn -0.496891 -0.860389 -0.113272
vn -0.256821 -0.958191 -0.126148
vn -0.258889 -0.965907 -0
vn -0.500109 -0.865962 1.89075e-009
vn -0.500109 -0.865962 1.89075e-009
vn -0.258889 -0.965907 -0
vn -0.256821 -0.958191 0.126148
vn -0.496891 -0.860389 0.113272
vn -0.256821 -0.958191 -0.126148
vn 3.00551e-008 -0.991445 -0.130526
vn -3.41038e-008 -1 -0
vn -0.258889 -0.965907 -0
vn -0.258889 -0.965907 -0
vn -3.41038e-008 -1 -0
vn -9.01654e-008 -0.991445 0.130526
vn -0.256821 -0.958191 0.126148
vn 3.00551e-008 -0.991445 -0.130526
vn 0.256821 -0.958191 -0.126148
vn 0.258889 -0.965907 -3.78722e-009
vn -3.41038e-008 -1 -0
vn -3.41038e-008 -1 -0
vn 0.258889 -0.965907 -3.78722e-009
vn 0.256821 -0.958191 0.126148
vn -9.01654e-008 -0.991445 0.130526
vn 0.256821 -0.958191 -0.126148
vn 0.496891 -0.860389 -0.113272
vn 0.500109 -0.865962 -0
vn 0.258889 -0.965907 -3.78722e-009
vn 0.258889 -0.965907 -3.78722e-009
vn 0.500109 -0.865962 -0
vn 0.496891 -0.860389 0.113272
vn 0.256821 -0.958191 0.126148
vn 0.496891 -0.860389 -0.113272
vn 0.704167 -0.70396 -0.0926781
vn 0.70721 -0.707003 1.88684e-009
vn 0.500109 -0.865962 -0
vn 0.500109 -0.865962 -0
vn 0.70721 -0.707003 1.88684e-009
vn 0.704166 -0.70396 0.0926781
vn 0.496891 -0.860389 0.113272
vn 0.704167 -0.70396 -0.0926781
vn 0.86422 -0.498811 -0.0656696
vn 0.866089 -0.49989 -0
vn 0.70721 -0.707003 1.88684e-009
vn 0.70721 -0.707003 1.88684e-009
vn 0.866089 -0.49989 -0
vn 0.864219 -0.498811 0.0656696
vn 0.704166 -0.70396 0.0926781
vn 0.86422 -0.498811 -0.0656696
vn 0.965385 -0.258598 -0.0340451
vn 0.965945 -0.258748 1.88005e-009
vn 0.866089 -0.49989 -0
vn 0.866089 -0.49989 -0
vn 0.965945 -0.258748 1.88005e-009
vn 0.965385 -0.258598 0.0340451
vn 0.864219 -0.498811 0.0656696
vn 0.965385 -0.258598 -0.0340451
vn 0.991445 -0.130526 -0
vn 0.965945 -0.258748 1.88005e-009
vn 0.965945 -0.258748 1.88005e-009
vn 0.991445 -0.130526 -0
vn 0.965385 -0.258598 0.0340451
vn 0.704167 0.703961 0.0926781
vn 0.793353 0.608761 -0
vn 0.675522 0.73734 1.25716e-009
vn 0.793353 0.608761 -0
vn 0.704167 0.703961 -0.0926781
vn 0.675522 0.73734 1.25716e-009
vn 0.256821 0.958191 0.126148
vn 0.496891 0.860389 0.113272
vn 0.537582 0.843211 6.29439e-009
vn 0.258889 0.965907 -0
vn 0.537582 0.843211 6.29439e-009
vn 0.496891 0.860389 -0.113272
vn 0.256821 0.958191 -0.126148
vn 0.258889 0.965907 -0
vn 6.7624e-008 0.991445 0.130527
vn 0.256821 0.958191 0.126148
vn 0.258889 0.965907 -0
vn 1.89465e-008 1 -0
vn 0.258889 0.965907 -0
vn 0.256821 0.958191 -0.126148
vn -3.00551e-008 0.991445 -0.130527
vn 1.89465e-008 1 -0
vn 1.89465e-008 1 -0
vn -0.258889 0.965907 -1.89361e-009
vn -0.256821 0.958191 0.126148
vn 6.7624e-008 0.991445 0.130527
vn -3.00551e-008 0.991445 -0.130527
vn -0.256821 0.958191 -0.126148
vn -0.258889 0.965907 -1.89361e-009
vn 1.89465e-008 1 -0
vn -0.258889 0.965907 -1.89361e-009
vn -0.537582 0.843212 2.39187e-008
vn -0.496891 0.860389 0.113272
vn -0.256821 0.958191 0.126148
vn -0.256821 0.958191 -0.126148
vn -0.496891 0.860389 -0.113272
vn -0.537582 0.843212 2.39187e-008
vn -0.258889 0.965907 -1.89361e-009
vn -0.793353 0.608761 -3.73723e-009
vn -0.704167 0.70396 0.0926781
vn -0.675522 0.73734 7.16579e-008
vn -0.704167 0.70396 -0.092678
vn -0.793353 0.608761 -3.73723e-009
vn -0.675522 0.73734 7.16579e-008
vn 0 1 -0
vn 0 1 -0
vn 0 1 -0
vn 0 1 -0
vn 0 1 -0
vn 0 1 -0
vn 0.496891 0.860389 0.113272
vn 0.605468 0.789061 0.103882
vn 0.537582 0.843211 6.29439e-009
vn 0.605468 0.789061 0.103882
vn 0.675522 0.73734 1.25716e-009
vn 0.537582 0.843211 6.29439e-009
vn 0.704167 0.703961 0.0926781
vn 0.675522 0.73734 1.25716e-009
vn 0.605468 0.789061 0.103882
vn 0.605468 0.789061 -0.103882
vn 0.496891 0.860389 -0.113272
vn 0.537582 0.843211 6.29439e-009
vn 0.675522 0.73734 1.25716e-009
vn 0.605468 0.789061 -0.103882
vn 0.537582 0.843211 6.29439e-009
vn 0.675522 0.73734 1.25716e-009
vn 0.704167 0.703961 -0.0926781
vn 0.605468 0.789061 -0.103882
vn -0.605468 0.789061 0.103882
vn -0.496891 0.860389 0.113272
vn -0.537582 0.843212 2.39187e-008
vn -0.675522 0.73734 7.16579e-008
vn -0.605468 0.789061 0.103882
vn -0.537582 0.843212 2.39187e-008
vn -0.675522 0.73734 7.16579e-008
vn -0.704167 0.70396 0.0926781
vn -0.605468 0.789061 0.103882
vn -0.496891 0.860389 -0.113272
vn -0.605468 0.789061 -0.103882
vn -0.537582 0.843212 2.39187e-008
vn -0.605468 0.789061 -0.103882
vn -0.675522 0.73734 7.16579e-008
vn -0.537582 0.843212 2.39187e-008
vn -0.704167 0.70396 -0.092678
vn -0.675522 0.73734 7.16579e-008
vn -0.605468 0.789061 -0.103882
vn -2.18384e-010 0.258819 -0.965926
vn -2.18384e-010 0.258819 -0.965926
vn 1.18894e-008 0.258819 -0.965926
vn 1.7383e-008 0.258819 -0.965926
vn -1.0334e-009 0.258819 -0.965926
vn -2.18384e-010 0.258819 -0.965926
vn -2.18384e-010 0.258819 -0.965926
vn -1.0334e-009 0.258819 -0.965926
vn 1.43338e-008 0.258819 -0.965926
vn 1.43338e-008 0.258819 -0.965926
vn -1.0334e-009 0.258819 -0.965926
vn -1.0334e-009 0.258819 -0.965926
vn 1.43338e-008 0.258819 -0.965926
vn 1.43338e-008 0.258819 -0.965926
vn 2.9701e-008 0.258819 -0.965926
vn 0 0.258819 -0.965926
vn 3.09076e-008 0.258819 -0.965926
vn 0 0.258819 -0.965926
vn 0 0.258819 -0.965926
vn 0 0.258819 -0.965926
vn 0 0.258819 -0.965926
vn 0 0.258819 -0.965926
vn 0 0.258819 -0.965926
vn 0 0.258819 -0.965926
vn -9.22433e-009 0.258819 -0.965926
vn -8.94016e-009 0.258819 -0.965926
vn 1.89875e-008 0.258819 -0.965926
vn -9.22433e-009 0.258819 -0.965926
vn 0 0.258819 -0.965926
vn -8.94016e-009 0.258819 -0.965926
vn 0 0.258819 -0.965926
vn 0 0.258819 -0.965926
vn -8.94016e-009 0.258819 -0.965926
vn 1.89875e-008 0.258819 -0.965926
vn -8.94016e-009 0.258819 -0.965926
vn 1.7383e-008 0.258819 -0.965926
vn 0 0.258819 -0.965926
vn 3.09076e-008 0.258819 -0.965926
vn 1.18894e-008 0.258819 -0.965926
vn 3.09076e-008 0.258819 -0.965926
vn 4.38047e-008 0.258819 -0.965926
vn 1.18894e-008 0.258819 -0.965926
vn 4.38047e-008 0.258819 -0.965926
vn -1.129e-008 0.258819 -0.965926
vn 1.18894e-008 0.258819 -0.965926
vn -1.129e-008 0.258819 -0.965926
vn 1.98875e-010 0.258819 -0.965926
vn 1.18894e-008 0.258819 -0.965926
vn 1.18894e-008 0.258819 -0.965926
vn 1.98875e-010 0.258819 -0.965926
vn 1.7383e-008 0.258819 -0.965926
vn 1.98875e-010 0.258819 -0.965926
vn 1.38467e-008 0.258819 -0.965926
vn 1.7383e-008 0.258819 -0.965926
vn 5.1475e-008 0.258819 -0.965926
vn 1.89875e-008 0.258819 -0.965926
vn 1.7383e-008 0.258819 -0.965926
vn 1.38467e-008 0.258819 -0.965926
vn 5.1475e-008 0.258819 -0.965926
vn 1.7383e-008 0.258819 -0.965926
vn 2.98317e-010 0.258819 0.965926
vn 2.98317e-010 0.258819 0.965926
vn 1.7383e-008 0.258819 0.965926
vn -1.73138e-008 0.258819 0.965926
vn -5.16702e-010 0.258819 0.965926
vn -5.16702e-010 0.258819 0.965926
vn 2.98317e-010 0.258819 0.965926
vn 2.98317e-010 0.258819 0.965926
vn 1.43338e-008 0.258819 0.965926
vn 1.43338e-008 0.258819 0.965926
vn -5.16702e-010 0.258819 0.965926
vn -5.16702e-010 0.258819 0.965926
vn 1.43338e-008 0.258819 0.965926
vn 1.43338e-008 0.258819 0.965926
vn 2.9701e-008 0.258819 0.965926
vn 0 0.258819 0.965926
vn 0 0.258819 0.965926
vn -8.94016e-009 0.258819 0.965926
vn -8.94016e-009 0.258819 0.965926
vn -9.22433e-009 0.258819 0.965926
vn 1.89875e-008 0.258819 0.965926
vn 0 0.258819 0.965926
vn -9.22433e-009 0.258819 0.965926
vn -8.94016e-009 0.258819 0.965926
vn 0 0.258819 0.965926
vn 0 0.258819 0.965926
vn 0 0.258819 0.965926
vn 0 0.258819 0.965926
vn 0 0.258819 0.965926
vn 0 0.258819 0.965926
vn -3.09076e-008 0.258819 0.965926
vn 0 0.258819 0.965926
vn 0 0.258819 0.965926
vn -8.94016e-009 0.258819 0.965926
vn 1.89875e-008 0.258819 0.965926
vn 1.7383e-008 0.258819 0.965926
vn -3.09076e-008 0.258819 0.965926
vn 0 0.258819 0.965926
vn -1.73138e-008 0.258819 0.965926
vn -4.38047e-008 0.258819 0.965926
vn -3.09076e-008 0.258819 0.965926
vn -1.73138e-008 0.258819 0.965926
vn -6.17656e-009 0.258819 0.965926
vn -4.38047e-008 0.258819 0.965926
vn -1.73138e-008 0.258819 0.965926
vn 1.98875e-010 0.258819 0.965926
vn -6.17656e-009 0.258819 0.965926
vn -1.73138e-008 0.258819 0.965926
vn 1.98875e-010 0.258819 0.965926
vn -1.73138e-008 0.258819 0.965926
vn 1.7383e-008 0.258819 0.965926
vn 1.38467e-008 0.258819 0.965926
vn 1.98875e-010 0.258819 0.965926
vn 1.7383e-008 0.258819 0.965926
vn 5.1475e-008 0.258819 0.965926
vn 1.38467e-008 0.258819 0.965926
vn 1.7383e-008 0.258819 0.965926
vn 1.89875e-008 0.258819 0.965926
vn 5.1475e-008 0.258819 0.965926
vn 1.7383e-008 0.258819 0.965926
g melon
usemtl melon
s 1
f 3/15/1 2/14/2 1/10/3
f 2/14/4 4/13/5 1/10/6
f 3/15/7 6/21/8 5/20/9 2/14/10
f 2/14/11 5/20/12 7/19/13 4/13/14
f 6/21/15 9/29/16 8/28/17 5/20/18
f 5/20/19 8/28/20 10/27/21 7/19/22
f 9/29/23 12/38/24 11/37/25 8/28/26
f 8/28/27 11/37/28 13/36/29 10/27/30
f 12/38/31 15/50/32 14/49/33 11/37/34
f 11/37/35 14/49/36 16/48/37 13/36/38
f 15/50/39 18/59/40 17/58/41 14/49/42
f 14/49/43 17/58/44 19/57/45 16/48/46
f 18/59/47 21/71/48 20/70/49 17/58/50
f 17/58/51 20/70/52 22/69/53 19/57/54
f 21/71/55 24/84/56 23/83/57 20/70/58
f 20/70/59 23/83/60 25/82/61 22/69/62
f 24/84/63 27/89/64 26/88/65 23/83/66
f 23/83/67 26/88/68 28/87/69 25/82/70
f 27/89/71 30/96/72 29/95/73 26/88/74
f 26/88/75 29/95/76 31/94/77 28/87/78
f 30/96/79 33/104/80 32/103/81 29/95/82
f 29/95/83 32/103/84 34/102/85 31/94/86
f 33/104/87 35/106/88 32/103/89
f 32/103/90 35/106/91 34/102/92
f 41/6/93 40/1/94 60/8/95
f 40/1/96 42/9/97 60/8/98
f 47/39/99 44/26/100 61/30/101 62/40/102
f 61/30/103 46/31/104 48/41/105 62/40/106
f 49/54/107 47/39/108 62/40/109 63/55/110
f 62/40/111 48/41/112 50/56/113 63/55/114
f 63/55/115 64/64/116 51/62/117 49/54/118
f 50/56/119 52/65/120 64/64/121 63/55/122
f 64/64/123 65/76/124 53/75/125 51/62/126
f 52/65/127 54/77/128 65/76/129 64/64/130
f 59/109/131 55/97/132 66/98/133
f 57/100/134 59/109/135 66/98/136
f 1/10/137 36/4/138 37/66/139
f 38/107/140 35/106/141 39/107/142
f 44/26/143 43/24/144 61/30/145
f 43/24/146 60/8/147 61/30/148
f 41/6/149 60/8/150 43/24/151
f 45/25/152 46/31/153 61/30/154
f 60/8/155 45/25/156 61/30/157
f 60/8/158 42/9/159 45/25/160
f 56/78/161 53/75/162 65/76/163
f 66/98/164 56/78/165 65/76/166
f 66/98/167 55/97/168 56/78/169
f 54/77/170 58/79/171 65/76/172
f 58/79/173 66/98/174 65/76/175
f 57/100/176 66/98/177 58/79/178
f 76/101/179 70/68/180 69/63/181 77/108/182
f 71/73/183 70/68/184 76/101/185 75/92/186
f 74/91/187 72/81/188 71/73/189 75/92/190
f 72/81/191 74/91/192 73/86/193
f 81/67/194 82/72/195 68/61/196
f 80/66/197 81/67/198 68/61/199
f 67/60/200 80/66/201 68/61/202
f 84/105/203 78/110/204 83/99/205
f 84/105/206 85/107/207 78/110/208
f 85/107/209 79/111/210 78/110/211
f 83/99/212 78/110/213 77/108/214
f 68/61/215 82/72/216 69/63/217
f 82/72/218 86/74/219 69/63/220
f 86/74/221 87/80/222 69/63/223
f 87/80/224 88/85/225 69/63/226
f 69/63/227 88/85/228 77/108/229
f 88/85/230 89/90/231 77/108/232
f 90/93/233 83/99/234 77/108/235
f 89/90/236 90/93/237 77/108/238
f 94/11/239 100/46/240 101/51/241 93/5/242
f 95/17/243 99/42/244 100/46/245 94/11/246
f 96/22/247 98/34/248 99/42/249 95/17/250
f 98/34/251 96/22/252 97/32/253
f 103/53/254 105/47/255 102/52/256
f 102/52/257 109/45/258 108/44/259
f 105/47/260 109/45/261 102/52/262
f 104/7/263 91/2/264 92/3/265
f 106/12/266 104/7/267 92/3/268
f 107/16/269 106/12/270 92/3/271
f 102/52/272 108/44/273 101/51/274
f 107/16/275 92/3/276 93/5/277
f 110/18/278 107/16/279 93/5/280
f 111/23/281 110/18/282 93/5/283
f 112/33/284 111/23/285 93/5/286
f 112/33/287 93/5/288 101/51/289
f 113/35/290 112/33/291 101/51/292
f 114/43/293 113/35/294 101/51/295
f 108/44/296 114/43/297 101/51/298
